<svg width="34" height="34" viewBox="0 0 34 34" fill="none" xmlns="http://www.w3.org/2000/svg">
<rect width="34" height="34" rx="10" fill="#EDF0F8"/>
<path d="M13.0142 16.0892C12.8124 15.7261 12.4958 15.4403 12.114 15.2766C11.7322 15.113 11.3069 15.0808 10.9048 15.185C10.5027 15.2892 10.1466 15.524 9.89241 15.8525C9.6382 16.181 9.50027 16.5846 9.50027 17C9.50027 17.4154 9.6382 17.819 9.89241 18.1475C10.1466 18.476 10.5027 18.7108 10.9048 18.815C11.3069 18.9192 11.7322 18.887 12.114 18.7233C12.4958 18.5597 12.8124 18.2739 13.0142 17.9108M13.0142 16.0892C13.1642 16.3592 13.25 16.6692 13.25 17C13.25 17.3308 13.1642 17.6417 13.0142 17.9108M13.0142 16.0892L20.9858 11.6608M13.0142 17.9108L20.9858 22.3392M20.9858 11.6608C21.1027 11.8809 21.2623 12.0755 21.4553 12.2333C21.6482 12.391 21.8707 12.5087 22.1097 12.5794C22.3487 12.6501 22.5993 12.6725 22.8471 12.6452C23.0948 12.618 23.3346 12.5416 23.5524 12.4205C23.7703 12.2995 23.9619 12.1363 24.1159 11.9403C24.2699 11.7444 24.3833 11.5197 24.4495 11.2795C24.5157 11.0392 24.5333 10.7882 24.5014 10.541C24.4694 10.2938 24.3885 10.0555 24.2633 9.83999C24.0167 9.41528 23.6133 9.10427 23.1398 8.97384C22.6664 8.8434 22.1606 8.90394 21.7313 9.14245C21.302 9.38096 20.9834 9.7784 20.844 10.2493C20.7046 10.7202 20.7555 11.2271 20.9858 11.6608ZM20.9858 22.3392C20.8662 22.5545 20.7902 22.7912 20.7621 23.0359C20.734 23.2806 20.7543 23.5285 20.822 23.7653C20.8897 24.0021 21.0033 24.2233 21.1565 24.4162C21.3096 24.6091 21.4993 24.77 21.7146 24.8896C21.9299 25.0092 22.1667 25.0852 22.4114 25.1133C22.6561 25.1414 22.9039 25.1211 23.1407 25.0534C23.3776 24.9857 23.5987 24.8721 23.7916 24.7189C23.9845 24.5658 24.1454 24.3761 24.265 24.1608C24.5066 23.726 24.5655 23.213 24.4288 22.7347C24.2922 22.2564 23.9711 21.852 23.5363 21.6104C23.1014 21.3688 22.5884 21.3099 22.1101 21.4466C21.6318 21.5832 21.2274 21.9043 20.9858 22.3392Z" stroke="#3A4980" stroke-width="1.5" stroke-linecap="round" stroke-linejoin="round"/>
</svg>
