<svg width="16" height="17" viewBox="0 0 16 17" fill="none" xmlns="http://www.w3.org/2000/svg">
<path d="M7.65333 2.83265C7.68153 2.76387 7.72954 2.70503 7.79128 2.66362C7.85301 2.62221 7.92566 2.6001 8 2.6001C8.07433 2.6001 8.14699 2.62221 8.20872 2.66362C8.27045 2.70503 8.31847 2.76387 8.34666 2.83265L9.76333 6.23998C9.78985 6.30374 9.83344 6.35894 9.88931 6.39952C9.94518 6.4401 10.0112 6.46448 10.08 6.46998L13.7587 6.76465C14.0913 6.79131 14.226 7.20665 13.9727 7.42331L11.17 9.82465C11.1176 9.86944 11.0786 9.92778 11.0572 9.99328C11.0358 10.0588 11.0329 10.1289 11.0487 10.196L11.9053 13.786C11.9225 13.858 11.918 13.9335 11.8924 14.003C11.8667 14.0724 11.821 14.1327 11.7611 14.1763C11.7012 14.2198 11.6297 14.2445 11.5557 14.2475C11.4817 14.2504 11.4085 14.2313 11.3453 14.1926L8.19533 12.2693C8.13649 12.2335 8.06891 12.2145 8 12.2145C7.93109 12.2145 7.86351 12.2335 7.80466 12.2693L4.65466 14.1933C4.5915 14.232 4.5183 14.2511 4.4443 14.2481C4.3703 14.2452 4.29883 14.2204 4.23891 14.1769C4.17899 14.1334 4.1333 14.0731 4.10763 14.0036C4.08196 13.9342 4.07745 13.8587 4.09466 13.7866L4.95133 10.196C4.96722 10.1289 4.9643 10.0588 4.94289 9.99325C4.92148 9.92773 4.88242 9.86939 4.83 9.82465L2.02733 7.42331C1.97121 7.37505 1.9306 7.31128 1.91063 7.24C1.89066 7.16873 1.8922 7.09314 1.91507 7.02274C1.93795 6.95235 1.98112 6.89028 2.03917 6.84436C2.09722 6.79844 2.16756 6.7707 2.24133 6.76465L5.92 6.46998C5.98883 6.46448 6.05481 6.4401 6.11068 6.39952C6.16655 6.35894 6.21014 6.30374 6.23666 6.23998L7.65333 2.83265Z" stroke="#D48D3B" stroke-width="1.5" stroke-linecap="round" stroke-linejoin="round"/>
</svg>
