<svg width="24" height="24" viewBox="0 0 24 24" fill="none" xmlns="http://www.w3.org/2000/svg">
<path d="M8.24999 18.75C8.24999 19.1478 8.09195 19.5293 7.81065 19.8107C7.52934 20.092 7.14781 20.25 6.74999 20.25C6.35216 20.25 5.97063 20.092 5.68933 19.8107C5.40802 19.5293 5.24999 19.1478 5.24999 18.75M8.24999 18.75C8.24999 18.3522 8.09195 17.9706 7.81065 17.6893C7.52934 17.408 7.14781 17.25 6.74999 17.25C6.35216 17.25 5.97063 17.408 5.68933 17.6893C5.40802 17.9706 5.24999 18.3522 5.24999 18.75M8.24999 18.75H14.25M5.24999 18.75H3.37499C3.07662 18.75 2.79047 18.6315 2.57949 18.4205C2.36851 18.2095 2.24999 17.9234 2.24999 17.625V14.25M14.25 18.75H16.5M14.25 18.75V14.25M2.24999 14.25V6.61499C2.2484 6.34116 2.34845 6.07648 2.53078 5.87217C2.7131 5.66786 2.96474 5.53845 3.23699 5.50899C6.57003 5.16302 9.92994 5.16302 13.263 5.50899C13.828 5.56699 14.25 6.04699 14.25 6.61499V7.57299M2.24999 14.25H14.25M19.5 18.75C19.5 19.1478 19.342 19.5293 19.0606 19.8107C18.7793 20.092 18.3978 20.25 18 20.25C17.6022 20.25 17.2206 20.092 16.9393 19.8107C16.658 19.5293 16.5 19.1478 16.5 18.75M19.5 18.75C19.5 18.3522 19.342 17.9706 19.0606 17.6893C18.7793 17.408 18.3978 17.25 18 17.25C17.6022 17.25 17.2206 17.408 16.9393 17.6893C16.658 17.9706 16.5 18.3522 16.5 18.75M19.5 18.75H20.625C21.246 18.75 21.754 18.246 21.715 17.626C21.514 14.3236 20.4019 11.1416 18.502 8.43299C18.321 8.17927 18.0848 7.97001 17.811 7.82102C17.5373 7.67203 17.2333 7.58722 16.922 7.57299H14.25M14.25 7.57299V14.25" stroke="#D75951" stroke-width="1.5" stroke-linecap="round" stroke-linejoin="round"/>
</svg>
