<svg width="50" height="50" viewBox="0 0 50 50" fill="none" xmlns="http://www.w3.org/2000/svg">
<rect width="50" height="50" rx="25" fill="#F5F1EE"/>
<path d="M28.7812 23.1875V19.25C28.7812 18.3798 28.4355 17.5452 27.8202 16.9298C27.2048 16.3145 26.3702 15.9688 25.5 15.9688C24.6298 15.9688 23.7952 16.3145 23.1798 16.9298C22.5645 17.5452 22.2188 18.3798 22.2188 19.25V23.1875M32.1553 21.4436L33.2604 31.9436C33.3216 32.5255 32.8666 33.0312 32.2812 33.0312H18.7188C18.5807 33.0314 18.4441 33.0025 18.318 32.9464C18.1918 32.8904 18.0788 32.8084 17.9864 32.7058C17.894 32.6032 17.8242 32.4824 17.7815 32.3511C17.7388 32.2197 17.7243 32.0809 17.7388 31.9436L18.8448 21.4436C18.8703 21.2017 18.9844 20.9779 19.1652 20.8152C19.346 20.6525 19.5806 20.5625 19.8239 20.5625H31.1761C31.6801 20.5625 32.1028 20.9431 32.1553 21.4436ZM22.5469 23.1875C22.5469 23.2745 22.5123 23.358 22.4508 23.4195C22.3892 23.4811 22.3058 23.5156 22.2188 23.5156C22.1317 23.5156 22.0483 23.4811 21.9867 23.4195C21.9252 23.358 21.8906 23.2745 21.8906 23.1875C21.8906 23.1005 21.9252 23.017 21.9867 22.9555C22.0483 22.8939 22.1317 22.8594 22.2188 22.8594C22.3058 22.8594 22.3892 22.8939 22.4508 22.9555C22.5123 23.017 22.5469 23.1005 22.5469 23.1875ZM29.1094 23.1875C29.1094 23.2745 29.0748 23.358 29.0133 23.4195C28.9517 23.4811 28.8683 23.5156 28.7812 23.5156C28.6942 23.5156 28.6108 23.4811 28.5492 23.4195C28.4877 23.358 28.4531 23.2745 28.4531 23.1875C28.4531 23.1005 28.4877 23.017 28.5492 22.9555C28.6108 22.8939 28.6942 22.8594 28.7812 22.8594C28.8683 22.8594 28.9517 22.8939 29.0133 22.9555C29.0748 23.017 29.1094 23.1005 29.1094 23.1875Z" stroke="#875541" stroke-width="1.5" stroke-linecap="round" stroke-linejoin="round"/>
</svg>
