<?xml version="1.0" encoding="UTF-8"?>
<!DOCTYPE svg PUBLIC "-//W3C//DTD SVG 1.1//EN" "http://www.w3.org/Graphics/SVG/1.1/DTD/svg11.dtd">
<!-- Creator: CorelDRAW -->
<svg xmlns="http://www.w3.org/2000/svg" xml:space="preserve" width="210mm" height="188.5mm" version="1.1" style="shape-rendering:geometricPrecision; text-rendering:geometricPrecision; image-rendering:optimizeQuality; fill-rule:evenodd; clip-rule:evenodd"
viewBox="0 0 21000 18850"
 xmlns:xlink="http://www.w3.org/1999/xlink"
 xmlns:xodm="http://www.corel.com/coreldraw/odm/2003">
 <defs>
  <style type="text/css">
   <![CDATA[
    .fil2 {fill:#40586A}
    .fil5 {fill:#CCD5DF}
    .fil3 {fill:#F7B54B}
    .fil1 {fill:#FDD05B}
    .fil0 {fill:#FE6E57}
    .fil4 {fill:#FEFDFD}
   ]]>
  </style>
 </defs>
 <g id="Слой_x0020_1">
  <metadata id="CorelCorpID_0Corel-Layer"/>
  <g id="_2137291885200">
   <path class="fil0" d="M13519.82 10497.16c552.35,-322.06 2429.8,-2001.24 2935.82,-2509.98 802.98,-807.31 1870.01,-2024.49 2310.27,-3128.59 1044.25,-2618.86 -1874.7,-5206.31 -4470.28,-3727.77 -475.81,271.03 -574.67,474.64 -775.81,594.94 -303.97,-234.9 -259.31,-289.75 -750.75,-581.68 -2506.3,-1488.78 -5512.46,989.24 -4491.87,3710.38 435.16,1160.24 1646.23,2452.22 2312.22,3127.32 235.55,238.76 425.07,392.48 674.76,655.06 113.77,119.66 242.03,189.45 357.65,308.66 232.86,240.11 1614.27,1385.4 1897.99,1551.66z"/>
   <path class="fil1" d="M14124.51 11721.74c451.35,-1.44 1624.99,-74.01 1301.15,633.94 -199.28,435.66 -854.25,652.25 -1320.52,737.88l19.37 -1371.82zm-10783.14 171.22c162.21,43.7 207.55,228.17 394.63,476.24 122.04,161.81 242.56,358.25 369.7,531.41 115.04,156.66 249.23,360.12 365.28,535.44 132.05,199.5 246.14,341.28 365.78,532.06l1093.53 1607.31c86.55,113.54 112.13,138.37 182.32,248.27 89.94,140.86 151.39,160.32 128.54,303.31 378.46,-180.18 644.15,-399.9 1174.08,-471.31 785.61,-105.86 3325.18,110.99 4705.18,-63.07 1603.31,-202.22 3513.46,-947.22 4696.07,-1648.35 697.66,-413.62 1283.4,-825.07 1893.79,-1275.97 555.46,-410.33 1359.44,-925.74 1578.38,-1593.09 184.79,-563.33 -138.38,-877.25 -701.1,-816.75 -642.79,69.11 -2122.35,849.89 -2751.06,1201.62 -165.88,92.8 -339.56,217.53 -508.82,280.25 -55.19,850.34 -256.34,1241.37 -764.32,1615.3 -1171.55,862.38 -2661.8,708.15 -4001.68,618.38 -344.12,-23.05 -731.15,-53.54 -1063.58,-107.75 -238.51,-38.89 -772.21,-83.51 -807.7,-365.92 749.15,-399.31 3744.13,690.49 5474.62,-347.3 287.22,-172.24 630.88,-444.98 688.1,-875.86 68.07,-512.5 -235.23,-757.23 -611.44,-886.52 -286.04,-98.28 -2359.42,-156.58 -2893.64,-205.22 -1699.43,-154.75 -3093.19,-1135.19 -4883.85,-1293.68 -1310.92,-116.03 -2592.77,286.27 -3380.05,1221.47l-742.76 779.73z"/>
   <path class="fil2" d="M4140.41 16830.56c-125.69,-777.78 1040.37,-942.13 1150.13,-184.95 110.75,763.98 -1031.49,919.11 -1150.13,184.95zm1860.25 -470.95c-81.92,-73.79 -270.34,-372.86 -357.18,-496.58l-2185.53 -3175.36c-97.99,-143.26 -283.24,-388.57 -358.91,-548.72 -140.71,-142.06 -399.94,-584.4 -534.34,-749.35l-38.2 -42.16c-4.02,-4.43 -17.93,-7.13 -20.91,-19.88 -2.99,-12.81 -13.82,-13.56 -21.48,-19.46l-2140.99 1462.37c90.15,201.36 336.59,514.59 477.32,714.22 156.68,222.24 321,463.96 478.29,695.33l2644.64 3853.12c69.89,101.39 164.34,264.18 262.63,335.2 197.62,-106.26 360.65,-248.94 540.74,-370.15l1600.56 -1097.71c-83.23,-191.31 -253,-344.4 -346.64,-540.87z"/>
   <path class="fil3" d="M3099.04 12138.95c75.67,160.15 260.92,405.46 358.91,548.72l2185.53 3175.36c86.84,123.72 275.26,422.79 357.18,496.58 56.02,-60.08 68.93,-62.97 148.99,-132.64 68.21,-59.36 69.49,-38.91 91.5,-99.97 22.85,-142.99 -38.6,-162.45 -128.54,-303.31 -70.19,-109.9 -95.77,-134.73 -182.32,-248.27l-1093.53 -1607.31c-119.64,-190.78 -233.73,-332.56 -365.78,-532.06 -116.05,-175.32 -250.24,-378.78 -365.28,-535.44 -127.14,-173.16 -247.66,-369.6 -369.7,-531.41 -187.08,-248.07 -232.42,-432.54 -394.63,-476.24 -93.01,109.55 -157.1,143.29 -242.33,245.99z"/>
   <path class="fil4" d="M14105.14 13093.56c466.27,-85.63 1121.24,-302.22 1320.52,-737.88 323.84,-707.95 -849.8,-635.38 -1301.15,-633.94l-19.37 1371.82z"/>
   <path class="fil5" d="M4140.41 16830.56c118.64,734.16 1260.88,579.03 1150.13,-184.95 -109.76,-757.18 -1275.82,-592.83 -1150.13,184.95z"/>
  </g>
 </g>
</svg>
